<svg width="50" height="50" viewBox="0 0 50 50" fill="none" xmlns="http://www.w3.org/2000/svg">
<path d="M18.2641 4.57075C20.5192 -1.52357 29.139 -1.52357 31.3941 4.57076L33.9755 11.5471C34.6845 13.4631 36.1952 14.9738 38.1112 15.6828L45.0876 18.2643C51.1819 20.5194 51.1819 29.1391 45.0876 31.3942L38.1112 33.9757C36.1952 34.6847 34.6845 36.1953 33.9755 38.1114L31.3941 45.0877C29.139 51.182 20.5192 51.182 18.2641 45.0877L15.6827 38.1114C14.9737 36.1953 13.463 34.6847 11.547 33.9757L4.57063 31.3942C-1.5237 29.1391 -1.52369 20.5194 4.57064 18.2643L11.547 15.6828C13.463 14.9738 14.9737 13.4631 15.6827 11.5471L18.2641 4.57075Z" fill="#80B3ED"/>
</svg>
