<svg width="203" height="177" viewBox="0 0 203 177" fill="none" xmlns="http://www.w3.org/2000/svg">
<circle cx="14.8245" cy="14.8245" r="14.8245" transform="matrix(-0.985322 -0.170706 -0.170706 0.985322 109.142 24.2125)" fill="#5E89B9"/>
<circle cx="14.8245" cy="14.8245" r="14.8245" transform="matrix(-0.985322 -0.170706 -0.170706 0.985322 127.923 27.4662)" fill="#5E89B9"/>
<circle cx="14.8245" cy="14.8245" r="14.8245" transform="matrix(-0.985322 -0.170706 -0.170706 0.985322 143.573 30.1776)" fill="#5E89B9"/>
<circle cx="14.8245" cy="14.8245" r="14.8245" transform="matrix(-0.985322 -0.170706 -0.170706 0.985322 128.506 17.8952)" fill="#5E89B9"/>
<circle cx="14.8245" cy="14.8245" r="14.8245" transform="matrix(-0.985322 -0.170706 -0.170706 0.985322 109.142 24.2125)" fill="#5E89B9"/>
<path d="M183.062 143.411C174.577 192.391 138.386 165.225 89.4065 156.739C40.4271 148.253 -2.79324 161.662 5.69239 112.682C14.178 63.7028 60.7626 30.8761 109.742 39.3618C158.721 47.8474 191.548 94.432 183.062 143.411Z" fill="#80B3ED"/>
<ellipse cx="126.863" cy="112.58" rx="13.2362" ry="16.9423" transform="rotate(9.82887 126.863 112.58)" fill="#343433"/>
<ellipse cx="72.4304" cy="102.751" rx="13.2362" ry="16.9423" transform="rotate(9.82887 72.4304 102.751)" fill="#343433"/>
</svg>
