<svg width="248" height="181" viewBox="0 0 248 181" fill="none" xmlns="http://www.w3.org/2000/svg">
<rect y="45.2687" width="224" height="138" rx="13" transform="rotate(-11.6593 0 45.2687)" fill="#F2EBDE"/>
<rect x="30.0649" y="87.055" width="24" height="24" rx="3" transform="rotate(-11.6593 30.0649 87.055)" fill="#D9D9D9"/>
<rect x="38.1487" y="126.23" width="183" height="15" rx="7.5" transform="rotate(-11.6593 38.1487 126.23)" fill="#C0B29D"/>
<rect x="42.5947" y="147.776" width="65" height="15" rx="7.5" transform="rotate(-11.6593 42.5947 147.776)" fill="#E2D5C2"/>
<rect x="158.16" y="123.929" width="65" height="15" rx="7.5" transform="rotate(-11.6593 158.16 123.929)" fill="#E2D5C2"/>
<path d="M67.2692 89.8786C66.156 90.9011 66.5358 92.7413 67.9627 93.2396L81.5602 97.9884C83.361 98.6173 84.9363 96.6081 83.896 95.0094L80.4167 89.6626C80.1419 89.2404 80.0366 88.7301 80.1218 88.2336L81.2004 81.9463C81.5229 80.0663 79.281 78.8448 77.8762 80.1352L67.2692 89.8786Z" fill="#D9D9D9"/>
</svg>
