<svg width="148" height="148" viewBox="0 0 148 148" fill="none" xmlns="http://www.w3.org/2000/svg">
<circle cx="74" cy="74" r="74" fill="#80B3ED"/>
<mask id="mask0_10_243" style="mask-type:alpha" maskUnits="userSpaceOnUse" x="0" y="0" width="148" height="148">
<circle cx="74" cy="74" r="74" fill="#80B3ED"/>
</mask>
<g mask="url(#mask0_10_243)">
<rect x="13" y="26" width="71" height="25" rx="12.5" fill="#A8ED80"/>
<rect x="102" y="35" width="63" height="25" rx="12.5" fill="#A8ED80"/>
<rect x="113" y="54" width="63" height="25" rx="12.5" fill="#A8ED80"/>
<rect x="133" y="74" width="63" height="25" rx="12.5" fill="#A8ED80"/>
<rect x="21" y="44" width="57" height="32" rx="16" fill="#A8ED80"/>
<rect x="28" y="64" width="25" height="32" rx="12.5" fill="#A8ED80"/>
<rect x="28" y="89" width="50" height="32" rx="16" fill="#A8ED80"/>
<rect x="50" y="87" width="36" height="36" rx="18" fill="#A8ED80"/>
<rect x="45" y="101" width="34" height="49" rx="17" fill="#A8ED80"/>
<rect x="-10" y="47" width="50" height="13" rx="6.5" fill="#E2F9D4" fill-opacity="0.58"/>
<rect x="27" y="74" width="30" height="9" rx="4.5" fill="#E2F9D4" fill-opacity="0.58"/>
<rect x="68" y="54" width="42" height="15" rx="7.5" fill="#E2F9D4" fill-opacity="0.58"/>
<rect x="112" y="77" width="30" height="11" rx="5.5" fill="#E2F9D4" fill-opacity="0.58"/>
<rect x="90" y="32" width="43" height="11" rx="5.5" fill="#E2F9D4" fill-opacity="0.58"/>
</g>
</svg>
