<svg width="151" height="157" viewBox="0 0 151 157" fill="none" xmlns="http://www.w3.org/2000/svg">
<path d="M88.2994 128.403C83.4263 136.205 72.0946 136.29 67.1052 128.562C64.7341 124.89 60.6234 122.715 56.2533 122.821L49.348 122.989C38.952 123.242 30.5051 114.658 30.925 104.268L31.4986 90.0735C31.6498 86.3325 30.0468 82.7351 27.164 80.346C19.5781 74.0595 22.3773 61.816 31.9413 59.4503L49.3355 55.1478C53.0937 54.2182 56.3337 51.8441 58.3525 48.5407L67.2722 33.9452C71.9926 26.221 83.8484 29.1383 84.4457 38.1709C84.8897 44.8868 92.1131 48.9098 98.0566 45.7513L98.4846 45.5238C106.866 41.0695 115.933 50.1944 111.426 58.5477L110.902 59.5185C109.002 63.0397 109.402 67.3574 111.917 70.4695L120.875 81.5543C128.367 90.8255 122.123 104.677 110.215 105.203C105.436 105.414 101.067 107.964 98.5323 112.021L88.2994 128.403Z" fill="#FBA8B0"/>
<circle cx="75" cy="84.0001" r="32" fill="#ED808B"/>
</svg>
