<svg width="57" height="63" viewBox="0 0 57 63" fill="none" xmlns="http://www.w3.org/2000/svg">
<path d="M21.5119 5.07901C23.4445 -1.69298 33.0418 -1.69299 34.9744 5.079L35.9325 8.43632C36.9693 12.069 40.7014 14.2238 44.3658 13.3053L47.7524 12.4564C54.5834 10.7441 59.382 19.0555 54.4836 24.1152L52.0552 26.6237C49.4275 29.3378 49.4275 33.6473 52.0552 36.3615L54.4836 38.8699C59.382 43.9296 54.5834 52.2411 47.7524 50.5288L44.3658 49.6799C40.7014 48.7614 36.9693 50.9162 35.9325 54.5488L34.9744 57.9062C33.0418 64.6782 23.4445 64.6782 21.5119 57.9062L20.5538 54.5489C19.5171 50.9162 15.7849 48.7614 12.1205 49.6799L8.73396 50.5288C1.90293 52.2411 -2.89569 43.9296 2.0027 38.8699L4.43116 36.3615C7.05881 33.6473 7.05881 29.3378 4.43116 26.6237L2.0027 24.1152C-2.89569 19.0555 1.90292 10.7441 8.73395 12.4564L12.1205 13.3053C15.7849 14.2238 19.5171 12.069 20.5538 8.43632L21.5119 5.07901Z" fill="#A8ED80"/>
</svg>
