<svg width="285" height="188" viewBox="0 0 285 188" fill="none" xmlns="http://www.w3.org/2000/svg">
<path d="M111.064 27.2378C112.18 24.2409 116.187 23.701 118.057 26.2954L126.366 37.8247C128.132 40.2753 126.648 43.7241 123.655 44.1275L110.386 45.9154C107.392 46.3188 105.049 43.3856 106.103 40.5549L111.064 27.2378Z" fill="#7FC656"/>
<path d="M152.401 21.6678C153.517 18.671 157.525 18.131 159.394 20.7255L167.703 32.2547C169.469 34.7053 167.985 38.1541 164.992 38.5575L151.723 40.3455C148.729 40.7488 146.386 37.8157 147.44 34.985L152.401 21.6678Z" fill="#7FC656"/>
<rect x="8.35498" y="97.5425" width="73.4114" height="69.2403" rx="34.6201" transform="rotate(-7.67402 8.35498 97.5425)" fill="#7FC656"/>
<rect x="199.334" y="71.8093" width="73.4114" height="69.2403" rx="34.6201" transform="rotate(-7.67402 199.334 71.8093)" fill="#7FC656"/>
<rect x="48.3674" y="50.9048" width="183.528" height="131.807" rx="65.9034" transform="rotate(-7.67402 48.3674 50.9048)" fill="#A8ED80"/>
<ellipse cx="123.88" cy="107.028" rx="10.4278" ry="13.3475" transform="rotate(-7.67402 123.88 107.028)" fill="#343433"/>
<ellipse cx="172.736" cy="100.958" rx="10.4278" ry="13.3475" transform="rotate(-7.67402 172.736 100.958)" fill="#343433"/>
</svg>
