<svg width="67" height="64" viewBox="0 0 67 64" fill="none" xmlns="http://www.w3.org/2000/svg">
<path d="M26.3651 4.83688C28.4605 -1.61229 37.5844 -1.61229 39.6799 4.83689L42.6766 14.0598C43.6137 16.944 46.3014 18.8967 49.334 18.8967H59.0315C65.8126 18.8967 68.632 27.574 63.146 31.5598L55.3005 37.2599C52.8471 39.0424 51.8205 42.202 52.7576 45.0861L55.7543 54.309C57.8498 60.7582 50.4684 66.1211 44.9824 62.1353L37.137 56.4352C34.6835 54.6527 31.3614 54.6527 28.908 56.4352L21.0625 62.1353C15.5765 66.1211 8.19513 60.7582 10.2906 54.309L13.2873 45.0861C14.2244 42.202 13.1978 39.0424 10.7444 37.2599L2.89891 31.5598C-2.58708 27.574 0.232353 18.8967 7.01342 18.8967H16.711C19.7435 18.8967 22.4312 16.944 23.3684 14.0598L26.3651 4.83688Z" fill="#EBAEE6"/>
</svg>
