<svg width="298" height="315" viewBox="0 0 298 315" fill="none" xmlns="http://www.w3.org/2000/svg">
<path d="M18.6157 58.6837C17.8983 56.8483 19.9876 55.1911 21.6115 56.3076L64.4181 85.7369C65.5265 86.499 65.5818 88.1161 64.5279 88.952L40.6317 107.905C39.5778 108.741 38.0157 108.319 37.5261 107.066L18.6157 58.6837Z" fill="#D2A0F0"/>
<path d="M192.105 9.14286C192.93 7.30919 195.641 7.70261 195.911 9.69515L202.757 60.2723C202.936 61.5894 201.803 62.7108 200.488 62.5199L172.701 58.4875C171.385 58.2966 170.619 56.8997 171.164 55.6876L192.105 9.14286Z" fill="#D2A0F0"/>
<circle cx="124.581" cy="102.231" r="70.775" fill="#E3B6FF"/>
<circle cx="88.9862" cy="156.036" r="70.775" fill="#E3B6FF"/>
<circle cx="89.8138" cy="222.258" r="70.775" fill="#E3B6FF"/>
<circle cx="213.981" cy="122.925" r="70.775" fill="#E3B6FF"/>
<circle cx="160.175" cy="243.781" r="70.775" fill="#E3B6FF"/>
<circle cx="227.225" cy="203.219" r="70.775" fill="#E3B6FF"/>
<circle cx="159.347" cy="172.592" r="87.3306" fill="#D2A0F0"/>
<ellipse cx="135.342" cy="165.556" rx="10.3472" ry="13.2444" transform="rotate(-5.54167 135.342 165.556)" fill="#343433"/>
<ellipse cx="183.756" cy="159.043" rx="10.3472" ry="13.2444" transform="rotate(-5.54167 183.756 159.043)" fill="#343433"/>
</svg>
