<svg width="233" height="260" viewBox="0 0 233 260" fill="none" xmlns="http://www.w3.org/2000/svg">
<path d="M161.799 47.2109C159.177 41.6381 151.507 40.9925 147.991 46.0488L131.064 70.3934C127.548 75.4497 130.825 82.4157 136.961 82.9322L166.508 85.4191C172.645 85.9356 177.039 79.6152 174.418 74.0424L161.799 47.2109Z" fill="#CC656F"/>
<path d="M173.053 175.762C159.617 202.075 121.027 198.827 112.178 170.638L96.2648 119.945C95.4186 117.25 94.2107 114.682 92.674 112.311C74.6988 84.5784 106.475 51.572 134.87 68.4819L137.294 69.9256C145.718 74.9422 155.981 75.806 165.124 72.2681L167.756 71.2499C198.577 59.3241 224.39 97.1777 202.032 121.515C200.121 123.596 198.5 125.926 197.216 128.442L173.053 175.762Z" fill="#ED808B"/>
<path d="M162.914 124.151C164.818 124.312 166.522 122.89 166.351 120.987C166.221 119.537 165.932 118.101 165.488 116.707C164.692 114.211 163.412 111.896 161.721 109.895C160.031 107.893 157.962 106.245 155.635 105.043C153.307 103.841 150.765 103.109 148.155 102.889C145.544 102.669 142.916 102.966 140.42 103.762C137.924 104.558 135.609 105.838 133.608 107.528C131.606 109.219 129.958 111.287 128.756 113.615C128.084 114.915 127.559 116.283 127.189 117.691C126.703 119.538 128.145 121.225 130.048 121.385C131.951 121.545 133.582 120.102 134.236 118.308C134.425 117.789 134.647 117.281 134.901 116.788C135.686 115.268 136.764 113.917 138.071 112.812C139.379 111.708 140.891 110.872 142.521 110.351C144.152 109.831 145.869 109.638 147.574 109.781C149.28 109.925 150.94 110.403 152.461 111.188C153.982 111.973 155.333 113.05 156.437 114.358C157.542 115.665 158.378 117.178 158.898 118.808C159.067 119.337 159.201 119.874 159.3 120.417C159.645 122.296 161.011 123.991 162.914 124.151Z" fill="#343433"/>
</svg>
