<svg width="60" height="60" viewBox="0 0 60 60" fill="none" xmlns="http://www.w3.org/2000/svg">
<path d="M24.3745 4.42606C25.7076 -1.47536 34.1162 -1.47536 35.4492 4.42606C36.3132 8.25078 40.7022 10.0688 44.0176 7.97521C49.1332 4.74488 55.079 10.6907 51.8486 15.8062C49.7551 19.1216 51.5731 23.5107 55.3978 24.3746C61.2992 25.7077 61.2992 34.1163 55.3978 35.4493C51.5731 36.3133 49.7551 40.7023 51.8486 44.0177C55.079 49.1333 49.1332 55.0791 44.0176 51.8487C40.7022 49.7552 36.3132 51.5732 35.4492 55.3979C34.1162 61.2993 25.7076 61.2993 24.3745 55.3979C23.5106 51.5732 19.1215 49.7552 15.8061 51.8487C10.6906 55.0791 4.74477 49.1333 7.9751 44.0177C10.0687 40.7023 8.25067 36.3133 4.42595 35.4493C-1.47546 34.1163 -1.47546 25.7077 4.42595 24.3746C8.25067 23.5107 10.0687 19.1216 7.9751 15.8062C4.74477 10.6907 10.6906 4.74488 15.8061 7.97521C19.1215 10.0688 23.5106 8.25078 24.3745 4.42606Z" fill="#ED808B"/>
</svg>
