<svg width="197" height="154" viewBox="0 0 197 154" fill="none" xmlns="http://www.w3.org/2000/svg">
<circle cx="97.9474" cy="76.8798" r="59" transform="rotate(12.8569 97.9474 76.8798)" fill="#EDEA80"/>
<path d="M22.6836 55.0101C22.6836 55.0101 62.5138 75.079 100.457 83.7392C136.503 91.9663 175.405 89.8672 175.405 89.8672" stroke="#AAA85A" stroke-width="19" stroke-linecap="round"/>
<path d="M180.752 94.8458C180.791 94.6953 180.915 94.5737 181.066 94.5335C188.481 92.5477 184.164 75.8961 170.527 76.6038C170.248 76.6184 170.077 76.9195 170.146 77.191C171.362 81.9708 153.589 78.2468 151.041 87.3006C149.606 93.5873 162.902 95.9958 169.188 97.4307C175.372 98.842 179.486 99.7805 180.752 94.8458Z" fill="#AAA85A"/>
<path d="M15.9815 57.2386C16.012 57.0862 15.9522 56.9225 15.8344 56.8212C10.0153 51.8148 21.1292 38.6851 33.1082 45.2393C33.354 45.3737 33.3775 45.7193 33.1975 45.9339C30.0279 49.7127 47.6565 54.0688 46.0241 63.3316C44.5893 69.6183 31.5652 66.0196 25.2785 64.5847C19.0948 63.1733 14.9813 62.234 15.9815 57.2386Z" fill="#AAA85A"/>
</svg>
